<mxfile host="app.diagrams.net" modified="2023-04-05T11:43:50.727Z" agent="Mozilla/5.0 (Windows NT 10.0; Win64; x64) AppleWebKit/537.36 (KHTML, like Gecko) Chrome/111.0.0.0 Safari/537.36 Edg/111.0.1661.62" etag="qqpKvIBb7luEdi5NqYi5" version="21.1.4" type="github">
  <diagram name="第 1 页" id="jlVK5qfQyr_egqlrKWcN">
    <mxGraphModel dx="1040" dy="558" grid="0" gridSize="10" guides="1" tooltips="1" connect="1" arrows="1" fold="1" page="1" pageScale="1" pageWidth="3300" pageHeight="4681" math="0" shadow="0">
      <root>
        <mxCell id="0" />
        <mxCell id="1" parent="0" />
        <mxCell id="k8o1MCGl5v_dafdXwM-l-1" value="&lt;font style=&quot;font-size: 43px;&quot;&gt;#&lt;/font&gt;" style="ellipse;whiteSpace=wrap;html=1;aspect=fixed;" vertex="1" parent="1">
          <mxGeometry x="994" y="746" width="112" height="112" as="geometry" />
        </mxCell>
        <mxCell id="k8o1MCGl5v_dafdXwM-l-2" value="FALLOW(A)" style="rounded=1;whiteSpace=wrap;html=1;" vertex="1" parent="1">
          <mxGeometry x="954" y="922" width="120" height="60" as="geometry" />
        </mxCell>
      </root>
    </mxGraphModel>
  </diagram>
</mxfile>
